<?xml version="1.0" encoding="UTF-8"?>
<svg version="1.1" xmlns="http://www.w3.org/2000/svg" width="500" height="500">
<path d="M0 0 C3.0310787 2.40931897 4.80289634 4.36685538 5.2734375 8.265625 C6.01305845 29.99910203 -3.17581927 51.68440403 -10 72 C-9.38253906 71.12859375 -8.76507813 70.2571875 -8.12890625 69.359375 C29.34865604 16.59245894 29.34865604 16.59245894 46.5625 12.0625 C50.61030046 11.98890363 52.62919901 12.80505982 56 15 C58.51663334 18.77495001 58.40249493 20.51241283 58 25 C56.95850909 27.70730879 55.90995306 30.08558126 54.5625 32.625 C54.20196533 33.32085205 53.84143066 34.0167041 53.4699707 34.73364258 C47.47229873 46.038189 39.68897559 55.80238649 31.34326172 65.43457031 C27.81048301 69.55165084 24.41256326 73.78328817 21 78 C19.90171875 79.299375 19.90171875 79.299375 18.78125 80.625 C16.90413107 83.12782523 16.36665619 84.65396756 16.53125 87.78125 C17.42262356 92.00041816 19.19969165 95.92369563 20.83984375 99.8984375 C21.80517984 102.47916764 22.32133543 104.41621453 22.5 107.125 C22.70379077 110.23417561 22.70379077 110.23417561 25.5625 111.9375 C26.366875 112.288125 27.17125 112.63875 28 113 C27 116 27 116 24 118 C23.505 119.485 23.505 119.485 23 121 C21.66666667 122.33333333 20.33333333 123.66666667 19 125 C17.59319702 127.01988444 16.22085489 129.06400451 14.875 131.125 C3.62860024 147.69766114 -13.09504773 158.86280602 -32.2109375 164.671875 C-36.60301599 165.47740905 -40.60270697 165.83837582 -44.5 163.5 C-45.2425 162.7575 -45.2425 162.7575 -46 162 C-45.59608418 157.03367143 -43.05127843 154.27628062 -39.75 150.8125 C-39.2135083 150.24297607 -38.6770166 149.67345215 -38.12426758 149.08666992 C-32.58297361 143.34761615 -26.52342432 138.56547953 -20 134 C-19.39752441 133.57589844 -18.79504883 133.15179688 -18.17431641 132.71484375 C-9.75984441 126.83765195 -1.14702095 121.65834794 8 117 C8.54751473 111.41534979 7.66592628 107.76072308 5.5 102.5625 C1.41729986 92.33810108 1.41729986 92.33810108 3 87 C6.92462995 79.77334428 12.82271563 73.97774124 18.42578125 68.0456543 C28.29567413 57.462556 38.33789325 43.79406842 43 30 C42.71260075 27.75759218 42.71260075 27.75759218 42 26 C41.34 26 40.68 26 40 26 C40 26.66 40 27.32 40 28 C39.319375 28.53625 38.63875 29.0725 37.9375 29.625 C34.89182259 32.08746259 32.54341635 34.71537702 30.0390625 37.70703125 C28.32674568 39.63256759 26.56998396 41.39240526 24.71875 43.1796875 C20.64090164 47.22894021 17.27153302 51.68837515 13.875 56.3125 C12.90494019 57.61985107 12.90494019 57.61985107 11.9152832 58.95361328 C4.61366767 68.81940696 -2.58351339 78.76279528 -9.6796875 88.77734375 C-13.83470263 94.639353 -18.03317581 100.46188509 -22.375 106.1875 C-23.16648438 107.23292969 -23.95796875 108.27835937 -24.7734375 109.35546875 C-26.74882722 111.70167724 -28.35972631 113.45894229 -31 115 C-34.25 114.6875 -34.25 114.6875 -37 114 C-38.12127123 110.68178195 -37.8908771 108.88105233 -36.6640625 105.62817383 C-36.34601654 104.76734695 -36.02797058 103.90652008 -35.70028687 103.01960754 C-35.3454422 102.09145737 -34.99059753 101.16330719 -34.625 100.20703125 C-33.88225465 98.20575498 -33.13958162 96.20445188 -32.39697266 94.203125 C-32.00471497 93.15833984 -31.61245728 92.11355469 -31.20831299 91.03710938 C-24.66410298 73.57266006 -18.25735193 56.18641894 -14 38 C-13.81808105 37.23413574 -13.63616211 36.46827148 -13.44873047 35.67919922 C-11.84281665 28.77605307 -10.56431814 22.116137 -11 15 C-12.34592097 16.65651812 -13.67518731 18.32655239 -15 20 C-15.43570313 20.52335937 -15.87140625 21.04671875 -16.3203125 21.5859375 C-24.08116391 31.29760402 -29.18401521 42.86105903 -33.67578125 54.3671875 C-35 57 -35 57 -38 58 C-39.21869929 60.50447516 -39.21869929 60.50447516 -40 63 C-40.99 63 -41.98 63 -43 63 C-44.60009599 43.7099539 -33.60234796 24.77614152 -21.80859375 10.3125 C-15.37394717 2.82174391 -10.33479289 -2.71076535 0 0 Z M3 131 C-6.6769992 137.231401 -15.84743095 144.03103879 -25 151 C-24.34 151.33 -23.68 151.66 -23 152 C-13.14317884 147.87054851 -1.31401407 140.6570458 5 132 C4.34 131.67 3.68 131.34 3 131 Z " fill="#D8D7D7" transform="translate(163,162)"/>
<path d="M0 0 C0.66 0.33 1.32 0.66 2 1 C-0.5390625 6.37109375 -0.5390625 6.37109375 -2 8 C-2.86625 8.12117188 -3.7325 8.24234375 -4.625 8.3671875 C-9.42171577 9.26657171 -12.50428826 11.81890313 -16.375 14.6875 C-17.09171875 15.20505859 -17.8084375 15.72261719 -18.546875 16.25585938 C-23.40781865 19.77872738 -28.20623546 23.38647549 -33 27 C-32.37037354 26.68264893 -31.74074707 26.36529785 -31.09204102 26.03833008 C-26.35811239 23.68778673 -23.28897332 22.37262359 -18 24 C-17.67 23.34 -17.34 22.68 -17 22 C-16.34 22.33 -15.68 22.66 -15 23 C-12.44939521 21.68771813 -12.44939521 21.68771813 -9.6875 19.8125 C-8.74261719 19.20019531 -7.79773438 18.58789062 -6.82421875 17.95703125 C-4.1133335 16.078534 -1.5476824 14.09290485 1 12 C-5.62827846 26.71867716 -24.83365053 34.52885813 -39 40 C-42.973474 41.2074868 -46.87308488 41.5074076 -51 41 C-53.5 39.5 -53.5 39.5 -55 38 C-54.62744849 32.74506287 -51.84874582 30.12514394 -48.375 26.5 C-47.86582031 25.94441406 -47.35664062 25.38882812 -46.83203125 24.81640625 C-43.21089114 20.95930213 -39.3837079 17.95927888 -35 15 C-34.731875 15.804375 -34.46375 16.60875 -34.1875 17.4375 C-33.795625 18.283125 -33.40375 19.12875 -33 20 C-32.01 20.33 -31.02 20.66 -30 21 C-27.68775616 19.42413955 -25.58357037 17.84026787 -23.4375 16.0625 C-17.23644578 11 -17.23644578 11 -15 11 C-15 10.34 -15 9.68 -15 9 C-12.56943154 7.33526758 -10.15685489 5.80712601 -7.625 4.3125 C-6.92632812 3.88388672 -6.22765625 3.45527344 -5.5078125 3.01367188 C-3.71097069 1.94074999 -1.85830122 0.96255827 0 0 Z " fill="#D9D7D7" transform="translate(172,286)"/>
<path d="M0 0 C0.99 0 1.98 0 3 0 C3.58541564 14.40772947 0.56334161 29.00575268 -4.625 42.4375 C-6.06134548 45.90457777 -6.06134548 45.90457777 -6.75 49.29296875 C-8.21897921 55.31079921 -10.47688765 61.07319246 -12.63085938 66.87158203 C-13.37018865 68.8620466 -14.10359775 70.85461082 -14.8359375 72.84765625 C-17.19880168 79.25810798 -19.60765907 85.63918824 -22.24951172 91.94140625 C-23.34818756 94.95508051 -23.72282382 97.81247392 -24 101 C-21.69 101 -19.38 101 -17 101 C-18.38563197 104.34861059 -19.76027096 106.29014301 -23 108 C-26.25 107.6875 -26.25 107.6875 -29 107 C-30.12127123 103.68178195 -29.8908771 101.88105233 -28.6640625 98.62817383 C-28.34601654 97.76734695 -28.02797058 96.90652008 -27.70028687 96.01960754 C-27.3454422 95.09145737 -26.99059753 94.16330719 -26.625 93.20703125 C-25.88225465 91.20575498 -25.13958162 89.20445188 -24.39697266 87.203125 C-24.00471497 86.15833984 -23.61245728 85.11355469 -23.20831299 84.03710938 C-16.66410298 66.57266006 -10.25735193 49.18641894 -6 31 C-5.81808105 30.23413574 -5.63616211 29.46827148 -5.44873047 28.67919922 C-3.84281665 21.77605307 -2.56431814 15.116137 -3 8 C-3.99 8.66 -4.98 9.32 -6 10 C-6.33 9.34 -6.66 8.68 -7 8 C-6.34 7.01 -5.68 6.02 -5 5 C-4.34 5 -3.68 5 -3 5 C-2.67 4.01 -2.34 3.02 -2 2 C-1.34 2 -0.68 2 0 2 C0 1.34 0 0.68 0 0 Z " fill="#B3A7A7" transform="translate(155,169)"/>
<path d="M0 0 C0.66 0.33 1.32 0.66 2 1 C2.99 0.67 3.98 0.34 5 0 C5.66 1.32 6.32 2.64 7 4 C2.17092189 10.12974671 -2.78019659 16.13937066 -7.83642578 22.08154297 C-12.29627319 27.3296135 -16.65980034 32.65244536 -21 38 C-21.495 36.515 -21.495 36.515 -22 35 C-22.44601563 33.89785156 -22.89203125 32.79570312 -23.3515625 31.66015625 C-24 28 -24 28 -22.1484375 25.12109375 C-21.23320312 24.23550781 -20.31796875 23.34992188 -19.375 22.4375 C-16.47955639 19.57939019 -14.07573072 17.12125424 -11.9140625 13.66015625 C-11.28242188 12.78230469 -10.65078125 11.90445313 -10 11 C-8.68 11 -7.36 11 -6 11 C-5.71125 10.4225 -5.4225 9.845 -5.125 9.25 C-4.568125 8.13625 -4.568125 8.13625 -4 7 C-3.67 6.319375 -3.34 5.63875 -3 4.9375 C-2 3 -2 3 0 0 Z " fill="#D6D6D6" transform="translate(200,208)"/>
<path d="M0 0 C0 3.85397515 -0.96210357 4.42337053 -3.625 7.125 C-14.95135516 18.00960964 -32.91275413 29.3551287 -49.09375 29.234375 C-51.70715009 28.91305532 -53.16268758 27.83731242 -55 26 C-54.64950425 22.75791433 -54.43778819 21.38472296 -51.9375 19.1875 C-51.298125 18.795625 -50.65875 18.40375 -50 18 C-49.67 18.99 -49.34 19.98 -49 21 C-37.7565341 23.88978929 -28.25834054 19.15384246 -18.63916016 13.64892578 C-8.63242344 7.70700166 -8.63242344 7.70700166 0 0 Z " fill="#B1A6A5" transform="translate(172,298)"/>
<path d="M0 0 C0.27263672 1.17755859 0.27263672 1.17755859 0.55078125 2.37890625 C2.1261934 9.07719025 2.1261934 9.07719025 4.6875 15.4375 C6.66769502 20.81231505 6.61096746 26.32673073 6 32 C5.34 32.66 4.68 33.32 4 34 C3.01 34 2.02 34 1 34 C0.85304687 32.98292969 0.85304687 32.98292969 0.703125 31.9453125 C-0.09829588 26.95715842 -1.07189568 22.50540549 -3.125 17.875 C-5.09153323 13.23220727 -6.05114482 9.01079713 -5 4 C-1.97560976 0 -1.97560976 0 0 0 Z " fill="#B2A5A5" transform="translate(171,245)"/>
<path d="M0 0 C4.26130137 1.38955479 4.26130137 1.38955479 5.875 3.9375 C6.8125 7.375 6.8125 7.375 6.875 10.9375 C4.84651122 14.02080295 3.40867962 14.78184344 -0.125 15.8125 C-3.29680132 15.94465839 -4.60651662 15.82636253 -7.125 13.9375 C-8.99902261 11.43880318 -9.12806118 10.0844366 -9.0625 6.9375 C-7.54998404 2.09744892 -5.14919188 -0.10298384 0 0 Z M-5.125 4.9375 C-5.125 6.9175 -5.125 8.8975 -5.125 10.9375 C-2.65 11.4325 -2.65 11.4325 -0.125 11.9375 C-0.785 10.6175 -1.445 9.2975 -2.125 7.9375 C-0.805 7.6075 0.515 7.2775 1.875 6.9375 C0.50014468 5.39583358 0.50014468 5.39583358 -1.125 3.9375 C-3.1995356 3.7884288 -3.1995356 3.7884288 -5.125 4.9375 Z " fill="#D7D7D7" transform="translate(335.125,262.0625)"/>
<path d="M0 0 C0.66 0.33 1.32 0.66 2 1 C1.52949219 1.90621094 1.05898437 2.81242188 0.57421875 3.74609375 C-0.05501843 4.9763933 -0.68390576 6.20687183 -1.3125 7.4375 C-1.62123047 8.02982422 -1.92996094 8.62214844 -2.24804688 9.23242188 C-6.85708677 18.30495304 -8.64638703 27.10802071 -9.81640625 37.15429688 C-9.92855469 38.00958984 -10.04070312 38.86488281 -10.15625 39.74609375 C-10.24712891 40.51622803 -10.33800781 41.2863623 -10.43164062 42.07983398 C-11 44 -11 44 -14 46 C-15.55704775 44.44295225 -15.24524433 42.98238039 -15.3125 40.8125 C-15.08254407 26.07441541 -7.56149285 12.27270334 0 0 Z " fill="#B0A5A5" transform="translate(135,180)"/>
<path d="M0 0 C2.5 1.625 2.5 1.625 4 4 C4.5 7 4.5 7 4 10 C2.05872646 12.66026374 0.65759911 13.76393878 -2.4375 14.875 C-5.55954946 15.0272951 -7.28424195 14.54137619 -10 13 C-12.18374316 10.31995157 -11.99384516 8.8810065 -11.8125 5.375 C-10.32540569 -0.80216099 -5.57249307 -0.89698078 0 0 Z M-6 3 C-8.26839983 4.83265325 -8.26839983 4.83265325 -8.1875 7.5625 C-8.27003323 9.94689723 -8.27003323 9.94689723 -7 11 C-4 11.16666667 -4 11.16666667 -1 11 C0.27003323 9.94689723 0.27003323 9.94689723 0.1875 7.5625 C0.26839983 4.83265325 0.26839983 4.83265325 -2 3 C-3.32 3 -4.64 3 -6 3 Z " fill="#D0D0D0" transform="translate(292,263)"/>
<path d="M0 0 C4.79458196 0.21309253 7.7424335 1.45500116 11 5 C11.67927401 8.62279473 11.46942769 10.25673949 9.5 13.375 C5.86748926 15.73613198 3.28156703 15.2854378 -1 15 C-1.69890847 10.63182208 -2.30880577 6.426216 -2 2 C-1.34 1.34 -0.68 0.68 0 0 Z M4 4 C2.58422523 5.18424326 2.58422523 5.18424326 2.9375 8.5625 C2.958125 9.696875 2.97875 10.83125 3 12 C4.32 11.67 5.64 11.34 7 11 C7.77242269 9.16299211 7.77242269 9.16299211 8 7 C6.70790088 5.20747941 6.70790088 5.20747941 5 4 C4.67 4 4.34 4 4 4 Z " fill="#DDDDDD" transform="translate(393,262)"/>
<path d="M0 0 C2.475 0.495 2.475 0.495 5 1 C5.33 2.32 5.66 3.64 6 5 C6.66 5 7.32 5 8 5 C8 3.35 8 1.7 8 0 C9.32 0.33 10.64 0.66 12 1 C12.05389087 2.95803507 12.09274217 4.91648909 12.125 6.875 C12.14820313 7.96554687 12.17140625 9.05609375 12.1953125 10.1796875 C12 13 12 13 10 15 C8.35 13.02 6.7 11.04 5 9 C4.34 10.65 3.68 12.3 3 14 C2.34 14 1.68 14 1 14 C-0.38226016 11.23547967 -0.09525387 8.9538637 -0.0625 5.875 C-0.05347656 4.77929688 -0.04445313 3.68359375 -0.03515625 2.5546875 C-0.02355469 1.71164062 -0.01195312 0.86859375 0 0 Z " fill="#D7D7D7" transform="translate(300,263)"/>
<path d="M0 0 C0.99 0.66 1.98 1.32 3 2 C2.67 3.65 2.34 5.3 2 7 C1.4225 6.67 0.845 6.34 0.25 6 C-2.19883862 4.72924102 -2.19883862 4.72924102 -6 5 C-5.67 6.32 -5.34 7.64 -5 9 C-2.36 9 0.28 9 3 9 C2.65660347 11.57547398 2.39993284 12.68894113 0.3125 14.3125 C-2.88552046 15.26326284 -4.82775215 15.01241953 -8 14 C-10.52366824 11.15069714 -11.02743228 9.68580708 -10.875 5.875 C-8.99407348 -0.30518715 -6.25355357 -0.558353 0 0 Z " fill="#D3D3D3" transform="translate(213,263)"/>
<path d="M0 0 C0.66 0.33 1.32 0.66 2 1 C-0.5390625 6.37109375 -0.5390625 6.37109375 -2 8 C-3.30130859 8.18369141 -3.30130859 8.18369141 -4.62890625 8.37109375 C-9.4009636 9.26136169 -12.45969387 11.77513162 -16.3125 14.625 C-17.06217041 15.16608398 -17.81184082 15.70716797 -18.58422852 16.26464844 C-23.29743621 19.68444524 -27.93415406 23.19245539 -32.43359375 26.890625 C-34 28 -34 28 -36 28 C-34.4226133 23.47171982 -30.8511681 21.18569102 -27.1875 18.375 C-26.57068359 17.88515625 -25.95386719 17.3953125 -25.31835938 16.890625 C-22.01197302 14.31860076 -19.03640789 12.30702732 -15 11 C-15 10.34 -15 9.68 -15 9 C-12.56943154 7.33526758 -10.15685489 5.80712601 -7.625 4.3125 C-6.92632812 3.88388672 -6.22765625 3.45527344 -5.5078125 3.01367188 C-3.71097069 1.94074999 -1.85830122 0.96255827 0 0 Z " fill="#B2A8A8" transform="translate(172,286)"/>
<path d="M0 0 C3.5 0.1875 3.5 0.1875 7 1 C9.16254877 4.24382316 9.21192277 4.46499769 8.5625 8 C8.02117496 11.00862759 7.98868926 11.96606778 9 15 C8.21625 14.835 7.4325 14.67 6.625 14.5 C4.11791961 13.9376293 4.11791961 13.9376293 2 14 C0.68 14 -0.64 14 -2 14 C-2.05389087 12.04196493 -2.09274217 10.08351091 -2.125 8.125 C-2.14820313 7.03445313 -2.17140625 5.94390625 -2.1953125 4.8203125 C-2 2 -2 2 0 0 Z M3 5 C3.33 5.66 3.66 6.32 4 7 C4.33 6.34 4.66 5.68 5 5 C4.34 5 3.68 5 3 5 Z " fill="#D4D4D6" transform="translate(239,262)"/>
<path d="M0 0 C0.33 1.32 0.66 2.64 1 4 C-1.97 3.505 -1.97 3.505 -5 3 C-5 3.66 -5 4.32 -5 5 C-4.21625 5.103125 -3.4325 5.20625 -2.625 5.3125 C0 6 0 6 2 9 C1.625 11.6875 1.625 11.6875 1 14 C-5.625 15.125 -5.625 15.125 -9 14 C-9 12.68 -9 11.36 -9 10 C-6.03 10.495 -6.03 10.495 -3 11 C-3.598125 10.566875 -4.19625 10.13375 -4.8125 9.6875 C-6.70783087 8.22538761 -8.3528593 6.72949773 -10 5 C-7.77318588 -1.20326792 -6.3484942 -1.24209669 0 0 Z " fill="#D9D9DA" transform="translate(274,263)"/>
<path d="M0 0 C3.89126347 3.33536869 6.17099741 7.26210499 8 12 C8 12.99 8 13.98 8 15 C7.39671875 14.91621094 6.7934375 14.83242188 6.171875 14.74609375 C5.37265625 14.64425781 4.5734375 14.54242188 3.75 14.4375 C2.96109375 14.33308594 2.1721875 14.22867187 1.359375 14.12109375 C-1.00532874 13.99972651 -2.7511037 14.30366743 -5 15 C-4.43174347 9.45949887 -2.37113483 4.96284034 0 0 Z " fill="#D2D2D2" transform="translate(351,262)"/>
<path d="M0 0 C3.36610811 2.24407208 3.78288384 3.27258198 5.1875 6.9375 C5.53167969 7.81277344 5.87585938 8.68804687 6.23046875 9.58984375 C7 12 7 12 7 15 C6.01 15 5.02 15 4 15 C4 14.34 4 13.68 4 13 C1.58354218 12.83312552 1.58354218 12.83312552 -1 13 C-1.66 13.66 -2.32 14.32 -3 15 C-3.99 15 -4.98 15 -6 15 C-3.10933941 4.44191344 -3.10933941 4.44191344 0 0 Z " fill="#D2D2D2" transform="translate(380,262)"/>
<path d="M0 0 C3 1 3 1 4.16796875 3.1796875 C4.50441406 4.06914062 4.84085938 4.95859375 5.1875 5.875 C5.53167969 6.75929688 5.87585938 7.64359375 6.23046875 8.5546875 C7 11 7 11 7 14 C6.01 14 5.02 14 4 14 C4 13.34 4 12.68 4 12 C1.58354218 11.83312552 1.58354218 11.83312552 -1 12 C-1.66 12.66 -2.32 13.32 -3 14 C-3.99 14 -4.98 14 -6 14 C-5.41162314 9.29298514 -3.44104424 3.44104424 0 0 Z " fill="#D6D6D7" transform="translate(226,263)"/>
<path d="M0 0 C0.70125 0.144375 1.4025 0.28875 2.125 0.4375 C1.61639546 5.73376864 0.27725954 9.88666772 -2.1875 14.625 C-2.48333984 15.22763672 -2.77917969 15.83027344 -3.08398438 16.45117188 C-4.90875984 20.04160481 -6.86665516 22.76120205 -9.875 25.4375 C-8.4865932 20.92517788 -6.67594316 16.80335725 -4.58203125 12.5859375 C-3.76351854 10.09874417 -4.01093042 8.87010352 -4.875 6.4375 C-6.195 6.7675 -7.515 7.0975 -8.875 7.4375 C-3.7809081 0.57535558 -3.7809081 0.57535558 0 0 Z " fill="#B2A8A8" transform="translate(209.875,181.5625)"/>
<path d="M0 0 C0.99 0 1.98 0 3 0 C3.02578125 0.77085937 3.0515625 1.54171875 3.078125 2.3359375 C3.13484375 3.33882813 3.1915625 4.34171875 3.25 5.375 C3.29640625 6.37273437 3.3428125 7.37046875 3.390625 8.3984375 C3.72160885 11.1526477 3.72160885 11.1526477 6.046875 12.3515625 C6.69140625 12.56554687 7.3359375 12.77953125 8 13 C7.67 13.66 7.34 14.32 7 15 C0.125 14.125 0.125 14.125 -1 13 C-1.09873816 11.00200428 -1.12971799 9.00042842 -1.125 7 C-1.12757813 5.906875 -1.13015625 4.81375 -1.1328125 3.6875 C-1 1 -1 1 0 0 Z " fill="#D3D3D3" transform="translate(363,263)"/>
<path d="M0 0 C1.32 0.33 2.64 0.66 4 1 C4.33 4.3 4.66 7.6 5 11 C5.99 11.33 6.98 11.66 8 12 C7.67 12.99 7.34 13.98 7 15 C4.0625 14.625 4.0625 14.625 1 14 C-0.38226016 11.23547967 -0.09525387 8.9538637 -0.0625 5.875 C-0.05347656 4.77929688 -0.04445312 3.68359375 -0.03515625 2.5546875 C-0.02355469 1.71164062 -0.01195312 0.86859375 0 0 Z " fill="#DFDFE4" transform="translate(252,263)"/>
<path d="M0 0 C2.5625 1.75 2.5625 1.75 4 4 C3.75 6.25 3.75 6.25 3 8 C3 7.01 3 6.02 3 5 C2.34 6.65 1.68 8.3 1 10 C0.67 10 0.34 10 0 10 C-0.66 8.02 -1.32 6.04 -2 4 C-4.44480079 4.18828772 -4.44480079 4.18828772 -7 5 C-8.36020151 6.96758273 -8.36020151 6.96758273 -9 9 C-9.66 6.69 -10.32 4.38 -11 2 C-7.32235984 -0.45176011 -4.27326371 -0.70362977 0 0 Z " fill="#D5D5D5" transform="translate(292,263)"/>
<path d="M0 0 C0.66 0.33 1.32 0.66 2 1 C2 1.66 2 2.32 2 3 C-1.02911803 5.4611584 -3.25471941 6.1692602 -7.0625 6.0625 C-10.90190373 6.00155708 -11.81659104 6.35340916 -15 8 C-17.75 7.625 -17.75 7.625 -20 7 C-20 6.34 -20 5.68 -20 5 C-19.175 5.0825 -18.35 5.165 -17.5 5.25 C-14.0844001 5.00602858 -12.87317131 4.54537087 -10 2.9375 C-6.94694579 1.26419144 -6.15052922 0.98924791 -2.5 1.25 C-1.675 1.4975 -0.85 1.745 0 2 C0 1.34 0 0.68 0 0 Z " fill="#D1CECE" transform="translate(154,308)"/>
<path d="M0 0 C0.66 0.33 1.32 0.66 2 1 C2 1.66 2 2.32 2 3 C4.97 3.495 4.97 3.495 8 4 C7.01 5.485 7.01 5.485 6 7 C4.68 6.67 3.36 6.34 2 6 C2 6.99 2 7.98 2 9 C0.35 9 -1.3 9 -3 9 C-3.75 7.3125 -3.75 7.3125 -4 5 C-2.0625 2.25 -2.0625 2.25 0 0 Z " fill="#B0A3A4" transform="translate(121,316)"/>
<path d="M0 0 C0.99 0.66 1.98 1.32 3 2 C2.38756458 11.88344059 2.38756458 11.88344059 -1 15 C-1.66 15 -2.32 15 -3 15 C-2.44854729 9.76119922 -1.57077907 5.02649303 0 0 Z " fill="#AEA2A2" transform="translate(152,189)"/>
<path d="M0 0 C0.33 0.66 0.66 1.32 1 2 C3.01669827 3.13350534 3.01669827 3.13350534 5 4 C2.69 4.33 0.38 4.66 -2 5 C-2.33 6.65 -2.66 8.3 -3 10 C-3.99 10 -4.98 10 -6 10 C-5.72510809 5.96825194 -5.46508424 4.43105369 -2.4375 1.625 C-1.633125 1.08875 -0.82875 0.5525 0 0 Z " fill="#D8D8D8" transform="translate(332,262)"/>
<path d="M0 0 C0.99 0 1.98 0 3 0 C3.33 0.66 3.66 1.32 4 2 C7.36857717 3.56000934 7.36857717 3.56000934 11 4 C11 3.34 11 2.68 11 2 C11.99 2.33 12.98 2.66 14 3 C12.14255768 5.37339853 11.02152312 5.9940468 8.0625 6.8125 C4.84577171 7.00944255 3.49018143 7.02903672 1 5 C0.25 2.375 0.25 2.375 0 0 Z " fill="#CDCDCD" transform="translate(327,271)"/>
<path d="M0 0 C2.97 0.495 2.97 0.495 6 1 C6.33 2.65 6.66 4.3 7 6 C6.01 6.495 6.01 6.495 5 7 C2.5249829 5.88568235 0.32116581 4.41849022 -2 3 C-1.34 2.67 -0.68 2.34 0 2 C0 1.34 0 0.68 0 0 Z " fill="#D9D9D9" transform="translate(209,263)"/>
<path d="M0 0 C0.66 0 1.32 0 2 0 C1.54738642 1.43931117 1.08767021 2.87638999 0.625 4.3125 C0.36976563 5.11300781 0.11453125 5.91351563 -0.1484375 6.73828125 C-1 9 -1 9 -3 12 C-3.66 12 -4.32 12 -5 12 C-5.33 12.66 -5.66 13.32 -6 14 C-5.6875 10.625 -5.6875 10.625 -5 7 C-4.01 6.34 -3.02 5.68 -2 5 C-0.79549696 2.44816596 -0.79549696 2.44816596 0 0 Z " fill="#D1CED0" transform="translate(130,208)"/>
<path d="M0 0 C1.0725 0.165 2.145 0.33 3.25 0.5 C7.03028752 1.08810915 7.03028752 1.08810915 11 1 C10.67 1.99 10.34 2.98 10 4 C3.9453125 4.9765625 3.9453125 4.9765625 2 5 C1.34 4.34 0.68 3.68 0 3 C0 2.01 0 1.02 0 0 Z " fill="#E9E9EA" transform="translate(205,271)"/>
<path d="M0 0 C0.66 0.33 1.32 0.66 2 1 C0.87749844 2.62672685 -0.24808733 4.25132582 -1.375 5.875 C-2.31472656 7.23238281 -2.31472656 7.23238281 -3.2734375 8.6171875 C-5 11 -5 11 -7 13 C-7.66 11.68 -8.32 10.36 -9 9 C-8.01 7.68 -7.02 6.36 -6 5 C-5.67 5.66 -5.34 6.32 -5 7 C-3.35 4.69 -1.7 2.38 0 0 Z " fill="#CECDCE" transform="translate(158,227)"/>
<path d="M0 0 C0.66 0 1.32 0 2 0 C2.33 1.65 2.66 3.3 3 5 C5.31 5.33 7.62 5.66 10 6 C9 8 9 8 7.15234375 8.6328125 C6.05599609 8.87644531 6.05599609 8.87644531 4.9375 9.125 C4.20402344 9.29257812 3.47054688 9.46015625 2.71484375 9.6328125 C2.14894531 9.75398438 1.58304687 9.87515625 1 10 C0 3.375 0 3.375 0 0 Z " fill="#E3E3E5" transform="translate(391,267)"/>
<path d="M0 0 C0.99 0.33 1.98 0.66 3 1 C2.6875 3.375 2.6875 3.375 2 6 C-1.6441774 8.4294516 -3.71241272 8.16179575 -8 8 C-5 6 -5 6 -2.875 5.125 C-0.79923543 4.15042479 -0.79923543 4.15042479 -0.25 1.875 C-0.1675 1.25625 -0.085 0.6375 0 0 Z " fill="#D0D0D1" transform="translate(401,269)"/>
<path d="M0 0 C0.66 0.66 1.32 1.32 2 2 C0.50728166 6.6138567 -1.73360028 9.49459542 -5 13 C-5.99 13.33 -6.98 13.66 -8 14 C-6.6744419 10.37723685 -5.05653045 7.36494652 -2.875 4.1875 C-2.33617187 3.39730469 -1.79734375 2.60710937 -1.2421875 1.79296875 C-0.83226562 1.20128906 -0.42234375 0.60960937 0 0 Z " fill="#CBCBCB" transform="translate(199,206)"/>
<path d="M0 0 C0.66 0.33 1.32 0.66 2 1 C1.38461538 7.52307692 1.38461538 7.52307692 -0.5625 9.9375 C-1.036875 10.288125 -1.51125 10.63875 -2 11 C-3.13643966 7.59068103 -2.86747764 6.99664544 -1.5625 3.8125 C-1.13130859 2.73935547 -1.13130859 2.73935547 -0.69140625 1.64453125 C-0.46324219 1.10183594 -0.23507813 0.55914062 0 0 Z " fill="#ACA2A3" transform="translate(140,231)"/>
<path d="M0 0 C-2.52956528 3.0916909 -5.22454612 3.90931332 -9 5 C-8.625 2.5625 -8.625 2.5625 -8 0 C-5.13822943 -1.43088528 -3.06624227 -0.59991697 0 0 Z " fill="#ACA3A2" transform="translate(152,316)"/>
<path d="M0 0 C0.66 0 1.32 0 2 0 C2.33 0.66 2.66 1.32 3 2 C3.99 2.33 4.98 2.66 6 3 C5.67 3.99 5.34 4.98 5 6 C2.03 5.505 2.03 5.505 -1 5 C-0.67 3.35 -0.34 1.7 0 0 Z " fill="#D5D5D5" transform="translate(254,272)"/>
<path d="M0 0 C0.99 0 1.98 0 3 0 C3.33 1.65 3.66 3.3 4 5 C1.92446352 5.5534764 0.15634036 6 -2 6 C-1.125 1.125 -1.125 1.125 0 0 Z " fill="#DEDEDE" transform="translate(239,262)"/>
<path d="M0 0 C0.99 0.33 1.98 0.66 3 1 C2.484375 1.5775 1.96875 2.155 1.4375 2.75 C-0.26505193 4.87827523 -0.26505193 4.87827523 0.3125 7.25 C0.6528125 8.11625 0.6528125 8.11625 1 9 C0.01 9.495 0.01 9.495 -1 10 C-1.99 9.01 -2.98 8.02 -4 7 C-2.79618552 4.50638429 -1.54571278 2.31856917 0 0 Z " fill="#D3D1D0" transform="translate(167,294)"/>
<path d="M0 0 C0.66 0.33 1.32 0.66 2 1 C1.67 2.65 1.34 4.3 1 6 C-1.31 6.33 -3.62 6.66 -6 7 C-6.66 6.01 -7.32 5.02 -8 4 C-5.36 4 -2.72 4 0 4 C0 2.68 0 1.36 0 0 Z " fill="#D1D1D6" transform="translate(274,271)"/>
<path d="M0 0 C-3.3 2.31 -6.6 4.62 -10 7 C-10.66 6.67 -11.32 6.34 -12 6 C-4.43243243 -2.21621622 -4.43243243 -2.21621622 0 0 Z " fill="#ABA1A2" transform="translate(164,295)"/>
<path d="M0 0 C2.9375 0.8125 2.9375 0.8125 6 2 C6.33 2.99 6.66 3.98 7 5 C6.34 5 5.68 5 5 5 C5 5.99 5 6.98 5 8 C4.34 7.67 3.68 7.34 3 7 C2.66666667 5.66666667 2.33333333 4.33333333 2 3 C1.34 2.67 0.68 2.34 0 2 C0 1.34 0 0.68 0 0 Z " fill="#CDCDCD" transform="translate(333,262)"/>
<path d="M0 0 C0.99 0.495 0.99 0.495 2 1 C2 1.66 2 2.32 2 3 C4.97 3.495 4.97 3.495 8 4 C7.01 5.485 7.01 5.485 6 7 C4.02 6.34 2.04 5.68 0 5 C0 3.35 0 1.7 0 0 Z " fill="#B8AAAB" transform="translate(121,316)"/>
<path d="M0 0 C0.66 0.33 1.32 0.66 2 1 C0.02 4.96 -1.96 8.92 -4 13 C-4.33 13 -4.66 13 -5 13 C-4.54996653 7.37458159 -3.31558515 4.38512875 0 0 Z " fill="#B1AEAC" transform="translate(135,180)"/>
<path d="M0 0 C0.66 0.33 1.32 0.66 2 1 C0.63016497 4.16115776 0.0109362 4.9927092 -3 7 C-4.32 6.67 -5.64 6.34 -7 6 C-4.69 4.02 -2.38 2.04 0 0 Z " fill="#B6ADAC" transform="translate(153,298)"/>
<path d="M0 0 C1.32 0.33 2.64 0.66 4 1 C3.25 5.75 3.25 5.75 1 8 C0.67 5.36 0.34 2.72 0 0 Z " fill="#D0D0D0" transform="translate(308,263)"/>
<path d="M0 0 C0.99 0 1.98 0 3 0 C3 0.66 3 1.32 3 2 C3.66 2 4.32 2 5 2 C5 3.65 5 5.3 5 7 C4.01 7.33 3.02 7.66 2 8 C2 5.69 2 3.38 2 1 C1.34 0.67 0.68 0.34 0 0 Z " fill="#D2D2D2" transform="translate(391,266)"/>
<path d="M0 0 C0.99 0 1.98 0 3 0 C2.67 2.97 2.34 5.94 2 9 C0 7 0 7 -0.125 3.375 C-0.08375 2.26125 -0.0425 1.1475 0 0 Z " fill="#D6D6D7" transform="translate(252,263)"/>
<path d="M0 0 C0.99 0.33 1.98 0.66 3 1 C2.67 3.31 2.34 5.62 2 8 C0.23537317 4.91190305 0 3.76687864 0 0 Z " fill="#D8D8D8" transform="translate(282,264)"/>
<path d="M0 0 C2.475 0.99 2.475 0.99 5 2 C5.33 1.34 5.66 0.68 6 0 C5.67 1.65 5.34 3.3 5 5 C2.5 3.625 2.5 3.625 0 2 C0 1.34 0 0.68 0 0 Z " fill="#E9E9E9" transform="translate(210,265)"/>
<path d="M0 0 C1.80330533 3.60661066 2.46599103 6.08393425 3 10 C2.01 10 1.02 10 0 10 C0 6.7 0 3.4 0 0 Z " fill="#A9A0A0" transform="translate(120,215)"/>
<path d="M0 0 C0.99 0.33 1.98 0.66 3 1 C2.67 2.65 2.34 4.3 2 6 C1.01 6 0.02 6 -1 6 C-0.67 4.02 -0.34 2.04 0 0 Z " fill="#ABA3A1" transform="translate(146,213)"/>
<path d="M0 0 C0.33 1.32 0.66 2.64 1 4 C0.01 4.33 -0.98 4.66 -2 5 C-1.34 3.35 -0.68 1.7 0 0 Z M-3 5 C-2.67 6.32 -2.34 7.64 -2 9 C-2.99 9 -3.98 9 -5 9 C-4.34 7.68 -3.68 6.36 -3 5 Z " fill="#D6D0D0" transform="translate(206,198)"/>
</svg>
